# xmcd
#
# Track frame offsets:
#	150
#	11651
#	18835
#	32580
#	39055
#	47398
#	56668
#	62291
#	73588
#	90748
#	96238
#	107727
#	111723
#	117758
#	129289
#	137122
#	141860
#	153561
#	159534
#	171018
#	191825
#
# Disc length: 2653 seconds
#
# Revision: 0
# Processed by: cddbd v1.5.2PL0 Copyright (c) Steve Scherf et al.
# Submitted via: EasyCDDAExtractor 16.0.6.1
#
DISCID=160a5b15
DTITLE=Άνευ ερμηνευτού - Η Νεράϊδα και το παλληκάρι-Ν. Μαμαγκάκης
DYEAR=1999
DGENRE=Κινηματογραφική
TTITLE0=Βουγιουκλάκη Αλίκη-Παπαμιχαήλ Δημήτρης - Ανέβα στο χαγιάτι μου
TTITLE1=Άνευ ερμηνευτού - Ερωτικό θέμα Ι
TTITLE2=Άνευ ερμηνευτού - Παραλλαγή συρτού
TTITLE3=Άνευ ερμηνευτού - Ερωτικό θέμα ΙΙ
TTITLE4=Βουγιουκλάκη Αλίκη - Γυρίζω, συγυρίζω
TTITLE5=Άνευ ερμηνευτού - Σούστα
TTITLE6=Άνευ ερμηνευτού - Ερωτικό θέμα-Παραλλαγή
TTITLE7=Άνευ ερμηνευτού - Πηδηχτός Ι
TTITLE8=Βουγιουκλάκη Αλίκη-Παπαμιχαήλ Δημήτρης - Ήτανε κάποιος άνθρωπος
TTITLE9=Άνευ ερμηνευτού - Ερωτικό θέμα ΙΙ
TTITLE10=Άνευ ερμηνευτού - Συρτός
TTITLE11=Άνευ ερμηνευτού - Δραματικό θέμα
TTITLE12=Άνευ ερμηνευτού - Η Νεράϊδα και το παλληκάρι: τίτλοι
TTITLE13=Παπαμιχαήλ Δημήτρης - Κάντε τόπο να χορέψω
TTITLE14=Άνευ ερμηνευτού - Δραματικό θέμα-Παραλλαγή
TTITLE15=Άνευ ερμηνευτού - Παραλλαγή Ι
TTITLE16=Άνευ ερμηνευτού - Πεντοζάλης
TTITLE17=Άνευ ερμηνευτού - Παραλλαγή ΙΙ
TTITLE18=Άνευ ερμηνευτού - Πηδηχτός ΙΙ
TTITLE19=Άνευ ερμηνευτού - Ήτανε κάποιος άνθρωπος [ορχήστρα]
TTITLE20=Άνευ ερμηνευτού - Φινάλε
EXTD=Christ\n
EXTT0=
EXTT1=
EXTT2=
EXTT3=
EXTT4=
EXTT5=
EXTT6=
EXTT7=
EXTT8=
EXTT9=
EXTT10=
EXTT11=
EXTT12=
EXTT13=
EXTT14=
EXTT15=
EXTT16=
EXTT17=
EXTT18=
EXTT19=
EXTT20=
PLAYORDER=
